<?xml version="1.0" encoding="utf-8"?>
<!-- Generator: Adobe Illustrator 24.0.1, SVG Export Plug-In . SVG Version: 6.00 Build 0)  -->
<svg version="1.1" id="Layer_1" xmlns="http://www.w3.org/2000/svg" xmlns:xlink="http://www.w3.org/1999/xlink" x="0px" y="0px"
	 viewBox="0 0 1366 768" style="enable-background:new 0 0 1366 768;" xml:space="preserve">
<style type="text/css">
	.st0{fill:#E6E7E8;}
	.st1{fill:#231F20;}
	.st2{fill:#EE4423;}
</style>
<circle class="st0" cx="815.1" cy="379.5" r="128.6"/>
<g>
	<g>
		<path class="st1" d="M96.1,358.4v40.4H85.7V383H52.8v15.8H42.4v-40.4h10.4v15.8h32.9v-15.8H96.1z"/>
		<path class="st1" d="M148.3,364.8v34h-9.9v-5.9c-4.8,3.8-11.5,6.5-19.8,6.5c-9.1,0-17.5-3.2-17.7-15.7l0.1-18.8h9.9v15.1
			c0,7.2,2.4,11,10.6,11c6.6,0,13.8-3.4,16.8-7v-19H148.3z"/>
		<path class="st1" d="M226.5,379.7l-0.1,19h-9.9v-15.1c0-7.2-1.2-11-8.2-11c-5.2,0-10.3,2.5-13.3,5.2c0.1,0.6,0.1,1.2,0.1,1.8
			l-0.1,19h-9.9v-15.1c0-7.2-1.2-11-8.2-11c-5.7,0-11.2,2.9-14.1,6v20h-9.9v-34h9.9v5.5c3.7-2.9,9.2-6.1,17.7-6.1
			c5.1,0,10,1.5,12.6,6.2c4.4-3.3,10.4-6.2,18.9-6.2C219.5,364.2,226.4,367.4,226.5,379.7z"/>
		<path class="st1" d="M276,381.6v17.1h-9.9v-4.2c-6,2.9-12.6,4.8-20.7,4.8c-9.5,0-15.5-3.1-15.5-10.7c0-8.8,9.7-11.6,20.5-11.6
			c5.8,0,11.2,0.9,15.6,2.4c0-6.5-8.3-7-12.9-7c-4.4,0-9.9,0.4-16.8,2.5l-3.5-7.2c6.9-2.3,13.7-3.5,20.8-3.5
			C267.8,364.2,275.9,368.8,276,381.6z M266.1,385.5c-3.5-1.1-8.1-2.1-14.4-2.1c-7.4,0-11.8,1.3-11.8,4.7c0,3.6,3.3,3.9,8.4,3.9
			c5.4,0,12.7-1.7,17.8-3.9V385.5z"/>
		<path class="st1" d="M327.7,380l-0.1,18.8h-9.9v-15.1c0-7.2-2.4-11-10.6-11c-6.6,0-13.8,3.4-16.8,7v19h-9.9v-34h9.9v5.9
			c4.8-3.8,11.5-6.5,19.8-6.5C319.1,364.2,327.5,367.4,327.7,380z"/>
		<path class="st1" d="M410.8,357.8c16.1,0,24.2,6.1,25.2,17.8h-10.6c-1-6.5-6-9.1-14.7-9.1c-10.6,0-15,3.7-15,12
			c0,8.3,4.5,12.1,15,12.1c8.6,0,13.7-2.6,14.7-9.2H436c-1,11.7-9.1,17.9-25.2,17.9c-17.8,0-25.4-7.4-25.4-20.8
			C385.4,365.1,393,357.8,410.8,357.8z"/>
		<path class="st1" d="M439.4,381.8c0-12.5,9.5-17.6,23.5-17.6c14,0,23.5,5.1,23.5,17.6c0,12.5-9.5,17.5-23.5,17.5
			C448.9,399.3,439.4,394.3,439.4,381.8z M476.6,381.8c0-7.1-4.5-9.3-13.6-9.3c-9.2,0-13.7,2.3-13.7,9.3c0,7,4.5,9.3,13.7,9.3
			C472.1,391.1,476.6,388.8,476.6,381.8z"/>
		<path class="st1" d="M563.8,379.7l-0.1,19h-9.9v-15.1c0-7.2-1.2-11-8.2-11c-5.2,0-10.3,2.5-13.3,5.2c0.1,0.6,0.1,1.2,0.1,1.8
			l-0.1,19h-9.9v-15.1c0-7.2-1.2-11-8.2-11c-5.7,0-11.2,2.9-14.1,6v20h-9.9v-34h9.9v5.5c3.7-2.9,9.2-6.1,17.7-6.1
			c5.1,0,10,1.5,12.6,6.2c4.4-3.3,10.4-6.2,18.9-6.2C556.8,364.2,563.7,367.4,563.8,379.7z"/>
		<path class="st1" d="M615.5,381.8c0,13-9.3,17.5-20.2,17.5c-7.3,0-13.2-2-16.9-5.8v19.7h-9.9v-48.4h9.9v5.2
			c3.7-3.8,9.6-5.8,16.9-5.8C606.2,364.2,615.5,368.8,615.5,381.8z M605.7,381.8c0-6.7-4.8-9.3-13.7-9.3c-8.8,0-13.6,2.6-13.6,9.3
			c0,6.7,4.8,9.3,13.6,9.3C600.8,391.1,605.7,388.5,605.7,381.8z"/>
		<path class="st1" d="M666.8,364.8v34h-9.9v-5.9c-4.8,3.8-11.5,6.5-19.8,6.5c-9.1,0-17.5-3.2-17.7-15.7l0.1-18.8h9.9v15.1
			c0,7.2,2.4,11,10.6,11c6.6,0,13.8-3.4,16.8-7v-19H666.8z"/>
		<path class="st1" d="M689.4,373v9.8c0,6.6,1.3,8.2,7.3,8.2c3.1,0,4.8,0,8.8-0.6v8c-3.3,0.6-7,0.9-11.6,0.9
			c-8.8,0-14.4-3.3-14.4-10.8V373h-8.9v-8.2h8.9v-7l9.9-2.8v9.9h16.1v8.2H689.4z"/>
		<path class="st1" d="M744.4,386.6h9.8c-2.2,8.7-10.7,12.7-23.2,12.7c-12.9,0-23-5.1-23-17.5c0-12.5,9.7-17.6,23.5-17.6
			c12.9,0,23.2,4.4,23.2,19.9h-36.7c1.1,5.4,6.3,7.2,12.9,7.2C737.7,391.3,741.9,390,744.4,386.6z M718.4,377.8h25.8
			c-1.7-4.8-6.5-6.1-12.7-6.1C724.7,371.7,720,373,718.4,377.8z"/>
		<path class="st1" d="M795,365.4v8.2c-3.2-0.8-5.8-1.2-8.7-1.2c-5.5,0-11.9,1.3-17.9,5.9v20.4h-9.9v-34h9.9v5.8
			c5.1-4.6,11.1-6.3,17.4-6.3C789.8,364.2,792.6,364.8,795,365.4z"/>
		<path class="st1" d="M836.1,398.8h-10.4v-40.4h10.4V398.8z"/>
		<path class="st1" d="M888.3,380l-0.1,18.8h-9.9v-15.1c0-7.2-2.4-11-10.6-11c-6.6,0-13.8,3.4-16.8,7v19H841v-34h9.9v5.9
			c4.8-3.8,11.5-6.5,19.8-6.5C879.7,364.2,888.2,367.4,888.3,380z"/>
		<path class="st1" d="M909,373v9.8c0,6.6,1.3,8.2,7.3,8.2c3.1,0,4.8,0,8.8-0.6v8c-3.3,0.6-7,0.9-11.6,0.9
			c-8.8,0-14.4-3.3-14.4-10.8V373h-8.9v-8.2h8.9v-7l9.9-2.8v9.9h16.1v8.2H909z"/>
		<path class="st1" d="M963.9,386.6h9.8c-2.2,8.7-10.7,12.7-23.2,12.7c-12.9,0-23-5.1-23-17.5c0-12.5,9.7-17.6,23.5-17.6
			c12.9,0,23.2,4.4,23.2,19.9h-36.7c1.1,5.4,6.3,7.2,12.9,7.2C957.3,391.3,961.5,390,963.9,386.6z M938,377.8h25.8
			c-1.7-4.8-6.5-6.1-12.7-6.1C944.3,371.7,939.5,373,938,377.8z"/>
		<path class="st1" d="M1014.5,365.4v8.2c-3.2-0.8-5.8-1.2-8.7-1.2c-5.5,0-11.9,1.3-17.9,5.9v20.4h-9.9v-34h9.9v5.8
			c5.1-4.6,11.1-6.3,17.4-6.3C1009.4,364.2,1012.2,364.8,1014.5,365.4z"/>
		<path class="st1" d="M1061.1,381.6v17.1h-9.9v-4.2c-6,2.9-12.6,4.8-20.6,4.8c-9.5,0-15.5-3.1-15.5-10.7c0-8.8,9.7-11.6,20.5-11.6
			c5.8,0,11.2,0.9,15.6,2.4c0-6.5-8.3-7-12.9-7c-4.4,0-9.9,0.4-16.8,2.5l-3.5-7.2c6.9-2.3,13.7-3.5,20.8-3.5
			C1052.9,364.2,1061,368.8,1061.1,381.6z M1051.1,385.5c-3.5-1.1-8.1-2.1-14.4-2.1c-7.4,0-11.8,1.3-11.8,4.7c0,3.6,3.3,3.9,8.4,3.9
			c5.4,0,12.7-1.7,17.8-3.9V385.5z"/>
		<path class="st1" d="M1088.1,364.2c12.7,0,21.6,4.2,23.2,14.1h-10.1c-1.3-4.4-6-5.9-13.2-5.9c-8.5,0-13.7,2.3-13.7,9.3
			c0,7,5.2,9.3,13.7,9.3c7.2,0,11.8-1.5,13.2-5.9h10.1c-1.6,10-10.6,14.1-23.2,14.1c-14.1,0-23.5-5.1-23.5-17.5
			C1064.5,369.3,1074,364.2,1088.1,364.2z"/>
		<path class="st1" d="M1130.9,373v9.8c0,6.6,1.3,8.2,7.3,8.2c3.1,0,4.8,0,8.8-0.6v8c-3.3,0.6-7,0.9-11.6,0.9
			c-8.8,0-14.4-3.3-14.4-10.8V373h-8.9v-8.2h8.9v-7l9.9-2.8v9.9h16.1v8.2H1130.9z"/>
		<path class="st1" d="M1160.8,352.6v8.6h-9.9v-8.6H1160.8z M1160.8,364.8v34h-9.9v-34H1160.8z"/>
		<path class="st1" d="M1164.6,381.8c0-12.5,9.5-17.6,23.5-17.6c14,0,23.5,5.1,23.5,17.6c0,12.5-9.5,17.5-23.5,17.5
			C1174.1,399.3,1164.6,394.3,1164.6,381.8z M1201.7,381.8c0-7.1-4.5-9.3-13.6-9.3c-9.2,0-13.7,2.3-13.7,9.3c0,7,4.5,9.3,13.7,9.3
			C1197.2,391.1,1201.7,388.8,1201.7,381.8z"/>
		<path class="st1" d="M1262.7,380l-0.1,18.8h-9.9v-15.1c0-7.2-2.4-11-10.6-11c-6.6,0-13.8,3.4-16.8,7v19h-9.9v-34h9.9v5.9
			c4.8-3.8,11.5-6.5,19.8-6.5C1254.1,364.2,1262.6,367.4,1262.7,380z"/>
		<path class="st1" d="M1275.9,386.8c0,3.6,3.7,5,14.8,5c10.7,0,12.4-0.7,12.4-3.3c0-2.6-1.6-2.8-13.6-3.5
			c-14.9-0.9-22.3-2-22.3-10.2c0-8.9,10.4-10.6,22.5-10.6c12.8,0,22.1,1.7,22.1,11h-9.9c0-2.8-3.6-3.5-12.7-3.5
			c-9.3,0-12,0.7-12,2.7c0,2.1,1.8,2.5,13.5,3.3c13.3,1,22.3,1.3,22.3,10.4c0,9.6-8.7,11.2-21.7,11.2s-25.2-1.7-25.2-12.5H1275.9z"
			/>
	</g>
	<path class="st2" d="M815.1,375v8.2H333.7V375H815.1z"/>
</g>
</svg>
