<?xml version="1.0" encoding="utf-8"?>
<!-- Generator: Adobe Illustrator 24.1.0, SVG Export Plug-In . SVG Version: 6.00 Build 0)  -->
<svg version="1.1" id="Layer_1" xmlns="http://www.w3.org/2000/svg" xmlns:xlink="http://www.w3.org/1999/xlink" x="0px" y="0px"
	 viewBox="0 0 1366 556" style="enable-background:new 0 0 1366 556;" xml:space="preserve">
<style type="text/css">
	.st0{fill:#231F20;}
	.st1{fill:#E61E25;}
</style>
<g>
	<path class="st0" d="M479.9,132.3l0.6,283.3l-72.9,0.1l-0.2-110.9l-230.8,0.5l0.2,110.9l-72.9,0.1L103.3,133l72.9-0.1l0.2,110.9
		l230.7-0.4l-0.2-110.9L479.9,132.3z"/>
	<path class="st0" d="M986.1,127.3c112.9-0.2,169.7,42.6,177.1,124.3l-74.1,0.1c-7-45.7-42.2-63.5-102.9-63.3
		c-74.1,0.1-105.2,26.5-105.1,84.4c0.1,58.3,31.7,84.9,105.4,84.8c60.3-0.1,95.9-18.4,102.7-64.6l74.1-0.1
		c-7.1,82.2-63.7,125.6-176.6,125.8c-124.7,0.2-178.2-51.5-178.4-145.8C808.1,179,861.4,127.5,986.1,127.3z"/>
	<path class="st0" d="M1262.7,414.1l-72.9,0.1l-0.6-283.3l72.9-0.1L1262.7,414.1z"/>
	<path class="st1" d="M985.7,248.3l0.1,57.5l-462.6,0.9l-0.1-57.5L985.7,248.3z"/>
</g>
<g>
	<path class="st0" d="M224.4,468.9h12.3c12.8,0,16.6,4.8,16.6,15.8v18.4c0,11.2-3.8,16.3-16.3,16.3h-12.6V468.9z M236.9,512.1
		c5.6,0,5.9-2.7,5.9-8v-20.8c0-5.1-0.6-7.2-6-7.2h-2.2l0.1,36H236.9z"/>
	<path class="st0" d="M259.6,470.4h9.5v7h-9.5V470.4z M259.7,483.3h9.4l0.1,36h-9.4L259.7,483.3z"/>
	<path class="st0" d="M273.9,524.2c0-3.4,2.3-5.7,5.5-7.2c-3.1-0.8-4.7-2.5-4.7-5.3c0-2.9,1.5-4.7,4-6.9c-2.4-2.1-3.6-5-3.6-9.6
		c0-8.2,4.3-12.6,12.2-12.7c3.7,0,6.5,1,8.3,3.1c0.8-1.3,2.4-2.8,4.5-3.7l1.2-0.6l2.2,4.7c-1.2,0.4-4.3,1.7-5.7,2.5
		c0.8,1.7,1.3,4.3,1.3,6.7c0,7.7-3.8,12.4-11.8,12.4c-2.1,0-4-0.3-5.5-0.9c-0.6,0.7-1,1.5-1,2.3c0,1,0.9,1.6,3.3,1.8l8.7,0.9
		c6,0.7,8.8,4,8.9,9.3c0,6.7-4.2,10.2-14.8,10.2C279.1,531.4,273.9,529.1,273.9,524.2z M295,521.5c0-1.9-1.2-2.6-5.3-3l-6.5-0.7
		c-1.2,1.1-2.2,2.2-2.2,3.6c0,2.1,1.9,3,7,3C292.5,524.5,295,523.8,295,521.5z M290.4,495.2c0-4.9-0.5-6.9-3.1-6.9s-3.2,2-3.2,6.9
		c0,4.5,0.6,6.7,3.2,6.7C290,502,290.4,500,290.4,495.2z"/>
	<path class="st0" d="M306,470.3h9.5v7H306V470.3z M306,483.2h9.4l0.1,36h-9.4L306,483.2z"/>
	<path class="st0" d="M323.2,509.7v-20.4h-3.5v-6.2h3.5v-10.8h9.5v10.8h5.2v6.2h-5.2v19.5c0,2.2,1.2,3.2,3.2,3.2
		c1,0,1.9-0.1,2.7-0.3v7.3c-1.2,0.2-3.5,0.5-5.8,0.5C325.2,519.6,323.2,516,323.2,509.7z"/>
	<path class="st0" d="M342.5,511c0-9,7.7-11.7,14.7-14.3v-3.4c0-2.4-0.4-3.9-2.4-3.9c-1.9,0-2.5,1.4-2.6,3.4l-0.2,2.5l-8.8-0.4
		c0.3-8.5,4.3-12.5,12.4-12.5c7.3,0,10.6,4.4,10.7,10.9V510c0,4.2,0.4,7,0.6,8.9h-8.4c-0.3-1.8-0.7-4.4-0.8-5.2
		c-0.9,3-3.2,5.8-7,5.8C345.4,519.7,342.5,515.2,342.5,511z M357.2,511v-9.9c-3.5,2-6,4.2-6,7.9c0,2.6,1.1,4,2.9,4
		C355.4,513,356.6,511.9,357.2,511z"/>
	<path class="st0" d="M372.8,468.6h9.3l0.1,50.4h-9.3L372.8,468.6z"/>
	<path class="st0" d="M405.6,468.6h10.9l6.3,31.8l6.5-31.8h10.5l1,50.4h-7.5l-0.9-34.2L426,519h-6.3l-6.7-34.4l-0.7,34.4h-7.5
		L405.6,468.6z"/>
	<path class="st0" d="M446.9,506.9v-12.1c0-8.2,4.2-12.6,12-12.6c8.2,0,11.6,4.5,11.7,12.8v6.3h-14.4v7c0,3.2,1,4.4,2.8,4.4
		s2.8-1.2,2.8-4.1v-3.5h8.7v3.1c0,7.2-4.1,11.1-11.5,11.2C451.1,519.5,447,515,446.9,506.9z M461.9,496.9v-3.5
		c0-3.2-0.9-4.4-2.9-4.4c-1.9,0-2.7,1.2-2.7,5.1v2.8L461.9,496.9z"/>
	<path class="st0" d="M475.6,507.6v-13.2c0-7,2.5-12.1,8.4-12.2c2.6,0,4.9,1.2,6.9,2.9v-16.7h9.4l0.1,50.4H491v-2.7
		c-2.1,2.1-4.4,3.3-6.8,3.3C478.7,519.5,475.7,515.7,475.6,507.6z M491,512.2v-22.9c-0.9-0.5-1.9-0.9-3-0.9c-2.1,0-2.9,2.1-2.9,4.7
		v15.2c0,2.8,0.6,5,2.9,5C488.8,513.2,489.9,512.8,491,512.2z"/>
	<path class="st0" d="M506.7,469.9h9.5v7h-9.5V469.9z M506.8,482.8h9.4l0.1,36h-9.4L506.8,482.8z"/>
	<path class="st0" d="M522,510.7c0-9,7.7-11.7,14.7-14.3V493c0-2.4-0.4-3.9-2.4-3.9c-1.9,0-2.5,1.4-2.6,3.4l-0.2,2.5l-8.8-0.4
		c0.3-8.5,4.3-12.5,12.4-12.5c7.3,0,10.6,4.4,10.7,10.9v16.7c0,4.2,0.4,7,0.6,8.9h-8.4c-0.3-1.8-0.7-4.4-0.8-5.2
		c-0.9,3-3.2,5.8-7,5.8C524.8,519.4,522,514.9,522,510.7z M536.6,510.6v-9.9c-3.5,2-6,4.2-6,7.9c0,2.6,1.1,4,2.9,4
		C534.8,512.7,536,511.6,536.6,510.6z"/>
	<path class="st0" d="M566.8,503.7l8.8-1.5c0.2,6.3,1.7,9.3,5,9.3c2.6,0,3.4-1.9,3.4-4.1c0-4.3-2.2-6.7-5.6-9.6l-5.2-4.5
		c-3.7-3.2-6.4-6.8-6.4-12.7c0-8.3,5.3-12.8,13.7-12.8c10.1,0,12.2,7.5,12.6,14l-8.9,1.3c-0.1-4.6-0.6-7.8-4-7.8
		c-2.4,0-3.5,2.1-3.5,4.3c0,3.6,1.7,5.5,4.6,8l5.1,4.5c4.2,3.7,7.7,8.1,7.7,14.9c0,7.2-5.1,12.5-13,12.5
		C571.7,519.3,567.2,514.4,566.8,503.7z"/>
	<path class="st0" d="M598.5,511l-0.1-28.4h9.4v27.1c0,1.9,0.6,3,2.3,3c1,0,2.1-0.6,3.3-1.4l-0.1-28.7h9.4l0.1,36h-9.4v-3.4
		c-2.5,2.4-5.4,4-8.6,4C600.5,519.2,598.5,515.6,598.5,511z"/>
	<path class="st0" d="M629.3,482.6h9.1v3c2.5-2.6,5.5-3.7,8.5-3.7c2.8,0,5,1.4,6.1,4.3c2.8-3.2,5.9-4.4,9.1-4.4c4,0,6.8,3,6.8,8.6
		l0.1,28h-9.1l-0.1-27.1c0-2.4-0.8-3.2-2.4-3.2c-1.1,0-2.6,0.6-3.8,1.7v0.6l0.1,28h-9.1l-0.1-27.1c0-2.4-0.8-3.2-2.4-3.2
		c-1.1,0-2.6,0.6-3.8,1.7l0.1,28.6h-9.1L629.3,482.6z"/>
	<path class="st0" d="M675.2,482.5h9.1v3c2.5-2.6,5.5-3.7,8.5-3.7c2.8,0,5,1.4,6.1,4.3c2.8-3.2,5.9-4.4,9.1-4.4c4,0,6.8,3,6.8,8.6
		l0.1,28h-9.1l-0.1-27.1c0-2.4-0.8-3.2-2.4-3.2c-1.1,0-2.6,0.6-3.8,1.7v0.6l0.1,28h-9.1l-0.1-27.1c0-2.4-0.8-3.2-2.4-3.2
		c-1.1,0-2.6,0.6-3.8,1.7l0.1,28.6h-9.1L675.2,482.5z"/>
	<path class="st0" d="M720.3,506.4v-12.1c0-8.2,4.2-12.6,12-12.6c8.2,0,11.6,4.5,11.7,12.8v6.3h-14.4v7c0,3.2,1,4.4,2.8,4.4
		s2.8-1.2,2.8-4.1v-3.5h8.7v3.1c0,7.2-4.1,11.1-11.5,11.2C724.5,519,720.3,514.5,720.3,506.4z M735.2,496.4v-3.5
		c0-3.2-0.9-4.4-2.9-4.4c-1.9,0-2.7,1.2-2.7,5.1v2.8L735.2,496.4z"/>
	<path class="st0" d="M749.8,482.3h9.4v5.8c2.4-4.2,4.5-6.2,7.8-6.2c0.5,0,1,0.1,1.4,0.1v9.6c-0.9-0.4-2.1-0.7-3.4-0.7
		c-2.3,0-4.2,1.2-5.8,3.5v24h-9.4V482.3z"/>
	<path class="st0" d="M788.8,467.8H799l0.1,50.4h-10.2L788.8,467.8z"/>
	<path class="st0" d="M806.2,482.2h9.3v3.6c2.6-2.6,5.5-4.2,8.7-4.3c4.4,0,6.4,3.7,6.4,8.2l0.1,28.4h-9.4l-0.1-26.9
		c0-1.9-0.5-2.9-2.2-2.9c-1,0-2.2,0.6-3.5,1.5l0.1,28.3h-9.3L806.2,482.2z"/>
	<path class="st0" d="M835,509.5l6.6-2.8c1.2,3.5,2.9,5.5,5.3,5.5c1.7,0,2.6-0.9,2.6-2.2c0-2-1.1-3.1-4.5-6l-3.4-2.9
		c-3.6-3-5.9-5.5-5.9-9.9c0-5.9,4.8-9.7,10.7-9.7s9.7,3.5,11.1,9.3l-6.1,2.8c-0.7-2.7-2.4-5.4-4.7-5.4c-1.6,0-2.5,1-2.5,2.4
		c0,1.5,1.6,3.1,4.4,5.4l3.4,3c3,2.5,6.2,5.5,6.2,10.1c0,6.2-5,9.7-10.8,9.7C841.2,518.8,837.2,515.8,835,509.5z"/>
	<path class="st0" d="M863.8,508.7v-20.4h-3.5v-6.2h3.5v-10.8h9.5v10.8h5.2v6.2h-5.2v19.5c0,2.2,1.2,3.2,3.2,3.2
		c1,0,1.9-0.1,2.7-0.3v7.3c-1.2,0.2-3.5,0.5-5.8,0.5C865.8,518.5,863.8,514.9,863.8,508.7z"/>
	<path class="st0" d="M884,469.1h9.5v7H884V469.1z M884.2,482.1h9.4l0.1,36h-9.4L884.2,482.1z"/>
	<path class="st0" d="M901.3,508.6v-20.4h-3.5V482h3.5v-10.8h9.5V482h5.2v6.2h-5.2v19.5c0,2.2,1.2,3.2,3.2,3.2c1,0,1.9-0.1,2.7-0.3
		v7.3c-1.2,0.2-3.5,0.5-5.8,0.5C903.3,518.4,901.3,514.8,901.3,508.6z"/>
	<path class="st0" d="M921.2,510.4l-0.1-28.4h9.4v27.1c0,1.9,0.6,3,2.3,3c1,0,2.1-0.6,3.3-1.4L936,482h9.4l0.1,36h-9.4v-3.4
		c-2.5,2.4-5.4,4-8.6,4C923.2,518.6,921.2,514.9,921.2,510.4z"/>
	<path class="st0" d="M953.2,508.5v-20.4h-3.5v-6.2h3.5v-10.8h9.5v10.8h5.2v6.2h-5.2v19.5c0,2.2,1.2,3.2,3.2,3.2
		c1,0,1.9-0.1,2.7-0.3v7.3c-1.2,0.2-3.5,0.5-5.8,0.5C955.2,518.3,953.2,514.7,953.2,508.5z"/>
	<path class="st0" d="M972.7,505.9v-12.1c0-8.2,4.2-12.6,12-12.6c8.2,0,11.6,4.5,11.7,12.8v6.3H982v7c0,3.2,1,4.4,2.8,4.4
		s2.8-1.2,2.8-4.1v-3.5h8.7v3.1c0,7.2-4.1,11.1-11.5,11.2C976.8,518.5,972.8,514,972.7,505.9z M987.7,495.9v-3.5
		c0-3.2-0.9-4.4-2.9-4.4c-1.9,0-2.7,1.2-2.7,5.1v2.8L987.7,495.9z"/>
	<path class="st0" d="M1017,511l12.2-18.9c2.7-4.2,5.3-7.7,5.3-12.3c0-3.2-1.3-5-3.7-5c-3.7,0-4.5,3.4-4.5,7.5v2.3h-9.4v-2.5
		c0-8.9,3.8-15.4,13.7-15.4c8.8,0,13.4,4.9,13.4,13.2c0,6.2-3.2,10.5-6.6,15.6l-9.7,14.6h14.9v7.6l-25.8,0.1L1017,511z"/>
	<path class="st0" d="M1049.2,504v-22.6c0-8.8,4.1-14.8,13.5-14.8c9.2,0,13.5,5.9,13.5,14.8V504c0,8.5-4.6,14.6-13.4,14.6
		C1053.8,518.6,1049.2,512.6,1049.2,504z M1066.4,503.8v-22.2c0-2.7-0.3-6.5-3.7-6.5c-3.5,0-3.7,3.9-3.7,6.5v22.2
		c0,2.5,0.4,6.3,3.7,6.3C1066.1,510.1,1066.4,506.3,1066.4,503.8z"/>
	<path class="st0" d="M1082.2,510.9l12.2-18.9c2.7-4.2,5.3-7.7,5.3-12.3c0-3.2-1.3-5-3.7-5c-3.7,0-4.5,3.4-4.5,7.5v2.3h-9.4V482
		c0-8.9,3.8-15.4,13.7-15.4c8.8,0,13.4,4.9,13.4,13.2c0,6.2-3.2,10.5-6.6,15.6L1093,510h14.9v7.6l-25.8,0.1L1082.2,510.9z"/>
	<path class="st0" d="M1114.6,503.9v-22.6c0-8.8,4.1-14.8,13.5-14.8c9.2,0,13.5,5.9,13.5,14.8v22.6c0,8.5-4.6,14.6-13.4,14.6
		C1119.1,518.5,1114.6,512.5,1114.6,503.9z M1131.8,503.7v-22.2c0-2.7-0.3-6.5-3.7-6.5c-3.5,0-3.7,3.9-3.7,6.5v22.2
		c0,2.5,0.4,6.3,3.7,6.3C1131.3,510,1131.8,506.2,1131.8,503.7z"/>
</g>
</svg>
