<?xml version="1.0" encoding="utf-8"?>
<!-- Generator: Adobe Illustrator 24.0.1, SVG Export Plug-In . SVG Version: 6.00 Build 0)  -->
<svg version="1.1" id="Layer_1" xmlns="http://www.w3.org/2000/svg" xmlns:xlink="http://www.w3.org/1999/xlink" x="0px" y="0px"
	 viewBox="0 0 1366 768" style="enable-background:new 0 0 1366 768;" xml:space="preserve">
<style type="text/css">
	.st0{fill:#231F20;}
	.st1{fill:#E61E25;}
</style>
<g>
	<path class="st0" d="M453.3,179.2l0.6,283.3l-72.9,0.1l-0.2-110.9L150,352.2l0.2,110.9l-72.9,0.1l-0.6-283.3l72.9-0.1l0.2,110.9
		l230.7-0.4l-0.2-110.9L453.3,179.2z"/>
	<path class="st0" d="M959.4,174.2c112.9-0.2,169.7,42.6,177.1,124.3l-74.1,0.1c-7-45.7-42.2-63.5-102.9-63.3
		c-74.1,0.1-105.2,26.5-105.1,84.4c0.1,58.3,31.7,84.9,105.4,84.8c60.3-0.1,95.9-18.4,102.7-64.6l74.1-0.1
		c-7.1,82.2-63.7,125.6-176.6,125.8c-124.7,0.2-178.2-51.5-178.4-145.8C781.4,225.9,834.7,174.4,959.4,174.2z"/>
	<path class="st0" d="M1236,461l-72.9,0.1l-0.6-283.3l72.9-0.1L1236,461z"/>
	<path class="st1" d="M959,295.2l0.1,57.5l-462.6,0.9l-0.1-57.5L959,295.2z"/>
</g>
<g>
	<path class="st0" d="M190.7,515.8l12.3,0c12.8,0,16.6,4.8,16.6,15.8l0,18.4c0,11.2-3.8,16.3-16.3,16.3l-12.6,0L190.7,515.8z
		 M203.2,559c5.6,0,5.9-2.7,5.9-8l0-20.8c0-5.1-0.6-7.2-6-7.2l-2.2,0l0.1,36L203.2,559z"/>
	<path class="st0" d="M225.9,517.3l9.5,0l0,7l-9.5,0L225.9,517.3z M226,530.2l9.4,0l0.1,36l-9.4,0L226,530.2z"/>
	<path class="st0" d="M240.2,571.1c0-3.4,2.3-5.7,5.5-7.2c-3.1-0.8-4.7-2.5-4.7-5.3c0-2.9,1.5-4.7,4-6.9c-2.4-2.1-3.6-5-3.6-9.6
		c0-8.2,4.3-12.6,12.2-12.7c3.7,0,6.5,1,8.3,3.1c0.8-1.3,2.4-2.8,4.5-3.7l1.2-0.6l2.2,4.7c-1.2,0.4-4.3,1.7-5.7,2.5
		c0.8,1.7,1.3,4.3,1.3,6.7c0,7.7-3.8,12.4-11.8,12.4c-2.1,0-4-0.3-5.5-0.9c-0.6,0.7-1,1.5-1,2.3c0,1,0.9,1.6,3.3,1.8l8.7,0.9
		c6,0.7,8.8,4,8.9,9.3c0,6.7-4.2,10.2-14.8,10.2C245.4,578.3,240.2,576,240.2,571.1z M261.3,568.4c0-1.9-1.2-2.6-5.3-3l-6.5-0.7
		c-1.2,1.1-2.2,2.2-2.2,3.6c0,2.1,1.9,3,7,3C258.8,571.4,261.3,570.7,261.3,568.4z M256.7,542.1c0-4.9-0.5-6.9-3.1-6.9
		c-2.6,0-3.2,2-3.2,6.9c0,4.5,0.6,6.7,3.2,6.7C256.3,548.9,256.7,546.9,256.7,542.1z"/>
	<path class="st0" d="M272.3,517.2l9.5,0l0,7l-9.5,0L272.3,517.2z M272.3,530.1l9.4,0l0.1,36l-9.4,0L272.3,530.1z"/>
	<path class="st0" d="M289.5,556.6l0-20.4l-3.5,0l0-6.2l3.5,0l0-10.8l9.5,0l0,10.8l5.2,0l0,6.2l-5.2,0l0,19.5c0,2.2,1.2,3.2,3.2,3.2
		c1,0,1.9-0.1,2.7-0.3l0,7.3c-1.2,0.2-3.5,0.5-5.8,0.5C291.5,566.5,289.5,562.9,289.5,556.6z"/>
	<path class="st0" d="M308.8,557.9c0-9,7.7-11.7,14.7-14.3l0-3.4c0-2.4-0.4-3.9-2.4-3.9c-1.9,0-2.5,1.4-2.6,3.4l-0.2,2.5l-8.8-0.4
		c0.3-8.5,4.3-12.5,12.4-12.5c7.3,0,10.6,4.4,10.7,10.9l0,16.7c0,4.2,0.4,7,0.6,8.9l-8.4,0c-0.3-1.8-0.7-4.4-0.8-5.2
		c-0.9,3-3.2,5.8-7,5.8C311.7,566.6,308.8,562.1,308.8,557.9z M323.5,557.9l0-9.9c-3.5,2-6,4.2-6,7.9c0,2.6,1.1,4,2.9,4
		C321.7,559.9,322.9,558.8,323.5,557.9z"/>
	<path class="st0" d="M339.1,515.5l9.3,0l0.1,50.4l-9.3,0L339.1,515.5z"/>
	<path class="st0" d="M371.9,515.5l10.9,0l6.3,31.8l6.5-31.8l10.5,0l1,50.4l-7.5,0l-0.9-34.2l-6.4,34.2l-6.3,0l-6.7-34.4l-0.7,34.4
		l-7.5,0L371.9,515.5z"/>
	<path class="st0" d="M413.2,553.8l0-12.1c0-8.2,4.2-12.6,12-12.6c8.2,0,11.6,4.5,11.7,12.8l0,6.3l-14.4,0l0,7c0,3.2,1,4.4,2.8,4.4
		c1.8,0,2.8-1.2,2.8-4.1l0-3.5l8.7,0l0,3.1c0,7.2-4.1,11.1-11.5,11.2C417.4,566.4,413.3,561.9,413.2,553.8z M428.2,543.8l0-3.5
		c0-3.2-0.9-4.4-2.9-4.4c-1.9,0-2.7,1.2-2.7,5.1l0,2.8L428.2,543.8z"/>
	<path class="st0" d="M441.9,554.5l0-13.2c0-7,2.5-12.1,8.4-12.2c2.6,0,4.9,1.2,6.9,2.9l0-16.7l9.4,0l0.1,50.4l-9.4,0l0-2.7
		c-2.1,2.1-4.4,3.3-6.8,3.3C445,566.4,442,562.6,441.9,554.5z M457.3,559.1l0-22.9c-0.9-0.5-1.9-0.9-3-0.9c-2.1,0-2.9,2.1-2.9,4.7
		l0,15.2c0,2.8,0.6,5,2.9,5C455.1,560.1,456.2,559.7,457.3,559.1z"/>
	<path class="st0" d="M473,516.8l9.5,0l0,7l-9.5,0L473,516.8z M473.1,529.7l9.4,0l0.1,36l-9.4,0L473.1,529.7z"/>
	<path class="st0" d="M488.2,557.6c0-9,7.7-11.7,14.7-14.3l0-3.4c0-2.4-0.4-3.9-2.4-3.9c-1.9,0-2.5,1.4-2.6,3.4l-0.2,2.5l-8.8-0.4
		c0.3-8.5,4.3-12.5,12.4-12.5c7.3,0,10.6,4.4,10.7,10.9l0,16.7c0,4.2,0.4,7,0.6,8.9l-8.4,0c-0.3-1.8-0.7-4.4-0.8-5.2
		c-0.9,3-3.2,5.8-7,5.8C491.1,566.3,488.2,561.8,488.2,557.6z M502.9,557.5l0-9.9c-3.5,2-6,4.2-6,7.9c0,2.6,1.1,4,2.9,4
		C501.1,559.6,502.3,558.5,502.9,557.5z"/>
	<path class="st0" d="M533,550.6l8.8-1.5c0.2,6.3,1.7,9.3,5,9.3c2.6,0,3.4-1.9,3.4-4.1c0-4.3-2.2-6.7-5.6-9.6l-5.2-4.5
		c-3.7-3.2-6.4-6.8-6.4-12.7c0-8.3,5.3-12.8,13.7-12.8c10.1,0,12.2,7.5,12.6,14l-8.9,1.3c-0.1-4.6-0.6-7.8-4-7.8
		c-2.4,0-3.5,2.1-3.5,4.3c0,3.6,1.7,5.5,4.6,8l5.1,4.5c4.2,3.7,7.7,8.1,7.7,14.9c0,7.2-5.1,12.5-13,12.5
		C537.9,566.2,533.5,561.3,533,550.6z"/>
	<path class="st0" d="M564.8,557.9l-0.1-28.4l9.4,0l0,27.1c0,1.9,0.6,3,2.3,3c1,0,2.1-0.6,3.3-1.4l-0.1-28.7l9.4,0l0.1,36l-9.4,0
		l0-3.4c-2.5,2.4-5.4,4-8.6,4C566.8,566.1,564.8,562.5,564.8,557.9z"/>
	<path class="st0" d="M595.6,529.5l9.1,0l0,3c2.5-2.6,5.5-3.7,8.5-3.7c2.8,0,5,1.4,6.1,4.3c2.8-3.2,5.9-4.4,9.1-4.4
		c4,0,6.8,3,6.8,8.6l0.1,28l-9.1,0l-0.1-27.1c0-2.4-0.8-3.2-2.4-3.2c-1.1,0-2.6,0.6-3.8,1.7l0,0.6l0.1,28l-9.1,0l-0.1-27.1
		c0-2.4-0.8-3.2-2.4-3.2c-1.1,0-2.6,0.6-3.8,1.7l0.1,28.6l-9.1,0L595.6,529.5z"/>
	<path class="st0" d="M641.5,529.4l9.1,0l0,3c2.5-2.6,5.5-3.7,8.5-3.7c2.8,0,5,1.4,6.1,4.3c2.8-3.2,5.9-4.4,9.1-4.4
		c4,0,6.8,3,6.8,8.6l0.1,28l-9.1,0l-0.1-27.1c0-2.4-0.8-3.2-2.4-3.2c-1.1,0-2.6,0.6-3.8,1.7l0,0.6l0.1,28l-9.1,0l-0.1-27.1
		c0-2.4-0.8-3.2-2.4-3.2c-1.1,0-2.6,0.6-3.8,1.7l0.1,28.6l-9.1,0L641.5,529.4z"/>
	<path class="st0" d="M686.6,553.3l0-12.1c0-8.2,4.2-12.6,12-12.6c8.2,0,11.6,4.5,11.7,12.8l0,6.3l-14.4,0l0,7c0,3.2,1,4.4,2.8,4.4
		c1.8,0,2.8-1.2,2.8-4.1l0-3.5l8.7,0l0,3.1c0,7.2-4.1,11.1-11.5,11.2C690.8,565.9,686.6,561.4,686.6,553.3z M701.5,543.3l0-3.5
		c0-3.2-0.9-4.4-2.9-4.4c-1.9,0-2.7,1.2-2.7,5.1l0,2.8L701.5,543.3z"/>
	<path class="st0" d="M716,529.2l9.4,0l0,5.8c2.4-4.2,4.5-6.2,7.8-6.2c0.5,0,1,0.1,1.4,0.1l0,9.6c-0.9-0.4-2.1-0.7-3.4-0.7
		c-2.3,0-4.2,1.2-5.8,3.5l0,24l-9.4,0L716,529.2z"/>
	<path class="st0" d="M755.1,514.7l10.2,0l0.1,50.4l-10.2,0L755.1,514.7z"/>
	<path class="st0" d="M772.5,529.1l9.3,0l0,3.6c2.6-2.6,5.5-4.2,8.7-4.3c4.4,0,6.4,3.7,6.4,8.2L797,565l-9.4,0l-0.1-26.9
		c0-1.9-0.5-2.9-2.2-2.9c-1,0-2.2,0.6-3.5,1.5l0.1,28.3l-9.3,0L772.5,529.1z"/>
	<path class="st0" d="M801.3,556.4l6.6-2.8c1.2,3.5,2.9,5.5,5.3,5.5c1.7,0,2.6-0.9,2.6-2.2c0-2-1.1-3.1-4.5-6l-3.4-2.9
		c-3.6-3-5.9-5.5-5.9-9.9c0-5.9,4.8-9.7,10.7-9.7c5.9,0,9.7,3.5,11.1,9.3l-6.1,2.8c-0.7-2.7-2.4-5.4-4.7-5.4c-1.6,0-2.5,1-2.5,2.4
		c0,1.5,1.6,3.1,4.4,5.4l3.4,3c3,2.5,6.2,5.5,6.2,10.1c0,6.2-5,9.7-10.8,9.7C807.5,565.7,803.5,562.7,801.3,556.4z"/>
	<path class="st0" d="M830.1,555.6l0-20.4l-3.5,0l0-6.2l3.5,0l0-10.8l9.5,0l0,10.8l5.2,0l0,6.2l-5.2,0l0,19.5c0,2.2,1.2,3.2,3.2,3.2
		c1,0,1.9-0.1,2.7-0.3l0,7.3c-1.2,0.2-3.5,0.5-5.8,0.5C832.1,565.4,830.1,561.8,830.1,555.6z"/>
	<path class="st0" d="M850.3,516l9.5,0l0,7l-9.5,0L850.3,516z M850.4,529l9.4,0l0.1,36l-9.4,0L850.4,529z"/>
	<path class="st0" d="M867.6,555.5l0-20.4l-3.5,0l0-6.2l3.5,0l0-10.8l9.5,0l0,10.8l5.2,0l0,6.2l-5.2,0l0,19.5c0,2.2,1.2,3.2,3.2,3.2
		c1,0,1.9-0.1,2.7-0.3l0,7.3c-1.2,0.2-3.5,0.5-5.8,0.5C869.6,565.3,867.6,561.7,867.6,555.5z"/>
	<path class="st0" d="M887.4,557.3l-0.1-28.4l9.4,0l0,27.1c0,1.9,0.6,3,2.3,3c1,0,2.1-0.6,3.3-1.4l-0.1-28.7l9.4,0l0.1,36l-9.4,0
		l0-3.4c-2.5,2.4-5.4,4-8.6,4C889.5,565.5,887.4,561.8,887.4,557.3z"/>
	<path class="st0" d="M919.5,555.4l0-20.4l-3.5,0l0-6.2l3.5,0l0-10.8l9.5,0l0,10.8l5.2,0l0,6.2l-5.2,0l0,19.5c0,2.2,1.2,3.2,3.2,3.2
		c1,0,1.9-0.1,2.7-0.3l0,7.3c-1.2,0.2-3.5,0.5-5.8,0.5C921.5,565.2,919.5,561.6,919.5,555.4z"/>
	<path class="st0" d="M938.9,552.8l0-12.1c0-8.2,4.2-12.6,12-12.6c8.2,0,11.6,4.5,11.7,12.8l0,6.3l-14.4,0l0,7c0,3.2,1,4.4,2.8,4.4
		c1.8,0,2.8-1.2,2.8-4.1l0-3.5l8.7,0l0,3.1c0,7.2-4.1,11.1-11.5,11.2C943.1,565.4,939,560.9,938.9,552.8z M953.9,542.8l0-3.5
		c0-3.2-0.9-4.4-2.9-4.4c-1.9,0-2.7,1.2-2.7,5.1l0,2.8L953.9,542.8z"/>
	<path class="st0" d="M983.2,557.9l12.2-18.9c2.7-4.2,5.3-7.7,5.3-12.3c0-3.2-1.3-5-3.7-5c-3.7,0-4.5,3.4-4.5,7.5l0,2.3l-9.4,0
		l0-2.5c0-8.9,3.8-15.4,13.7-15.4c8.8,0,13.4,4.9,13.4,13.2c0,6.2-3.2,10.5-6.6,15.6l-9.7,14.6l14.9,0l0,7.6l-25.8,0.1L983.2,557.9z
		"/>
	<path class="st0" d="M1015.5,550.9l0-22.6c0-8.8,4.1-14.8,13.5-14.8c9.2,0,13.5,5.9,13.5,14.8l0,22.6c0,8.5-4.6,14.6-13.4,14.6
		C1020,565.5,1015.5,559.5,1015.5,550.9z M1032.7,550.7l0-22.2c0-2.7-0.3-6.5-3.7-6.5c-3.5,0-3.7,3.9-3.7,6.5l0,22.2
		c0,2.5,0.4,6.3,3.7,6.3C1032.3,557,1032.7,553.2,1032.7,550.7z"/>
	<path class="st0" d="M1048.5,557.8l12.2-18.9c2.7-4.2,5.3-7.7,5.3-12.3c0-3.2-1.3-5-3.7-5c-3.7,0-4.5,3.4-4.5,7.5l0,2.3l-9.4,0
		l0-2.5c0-8.9,3.8-15.4,13.7-15.4c8.8,0,13.4,4.9,13.4,13.2c0,6.2-3.2,10.5-6.6,15.6l-9.7,14.6l14.9,0l0,7.6l-25.8,0.1L1048.5,557.8
		z"/>
	<path class="st0" d="M1080.8,550.8l0-22.6c0-8.8,4.1-14.8,13.5-14.8c9.2,0,13.5,5.9,13.5,14.8l0,22.6c0,8.5-4.6,14.6-13.4,14.6
		C1085.3,565.4,1080.8,559.4,1080.8,550.8z M1098,550.6l0-22.2c0-2.7-0.3-6.5-3.7-6.5c-3.5,0-3.7,3.9-3.7,6.5l0,22.2
		c0,2.5,0.4,6.3,3.7,6.3C1097.6,556.9,1098,553.1,1098,550.6z"/>
</g>
</svg>
