<svg xmlns="http://www.w3.org/2000/svg" xmlns:xlink="http://www.w3.org/1999/xlink" id="Layer_1" x="0" y="0" version="1.1" viewBox="0 0 232 1080" xml:space="preserve" style="enable-background:new 0 0 232 1080"><style type="text/css">.st0{fill:#e6e7e8}.st1{fill:#231f20}.st2{fill:#ee4423}</style><circle cx="116.2" cy="424.3" r="106.8" class="st0"/><g><g><path d="M98.6,1021.4h33.5v8.6H119v27.3h13.1v8.6H98.6v-8.6h13.1v-27.3H98.6V1021.4z" class="st1"/><path d="M104,978.1h28.2v8.2h-4.9c3.2,4,5.4,9.6,5.4,16.4c0,7.5-2.7,14.6-13.1,14.7l-15.6-0.1v-8.2h12.5 c6,0,9.1-2,9.1-8.8c0-5.5-2.8-11.4-5.8-14H104V978.1z" class="st1"/><path d="M116.4,913.1l15.8,0.1v8.2h-12.5c-6,0-9.1,1-9.1,6.8c0,4.3,2.1,8.5,4.3,11c0.5,0,1,0,1.5,0l15.8,0.1v8.2 h-12.5c-6,0-9.1,1-9.1,6.8c0,4.7,2.4,9.3,5,11.7h16.6v8.2H104v-8.2h4.6c-2.4-3.1-5.1-7.7-5.1-14.7c0-4.3,1.2-8.3,5.2-10.4 c-2.7-3.6-5.2-8.7-5.2-15.7C103.5,919,106.2,913.2,116.4,913.1z" class="st1"/><path d="M117.9,872.1h14.2v8.2h-3.5c2.4,5,4,10.5,4,17.2c0,7.9-2.5,12.8-8.9,12.8c-7.3,0-9.6-8-9.6-17 c0-4.8,0.8-9.3,2-13c-5.4,0-5.8,6.9-5.8,10.7c0,3.7,0.3,8.2,2.1,14l-6,2.9c-1.9-5.7-2.9-11.4-2.9-17.3 C103.5,878.9,107.3,872.1,117.9,872.1z M121.2,880.3c-0.9,2.9-1.7,6.8-1.7,12c0,6.1,1.1,9.8,3.9,9.8c3,0,3.2-2.7,3.2-7 c0-4.5-1.4-10.6-3.2-14.8H121.2z" class="st1"/><path d="M116.5,829.1l15.6,0.1v8.2h-12.5c-6,0-9.1,2-9.1,8.8c0,5.5,2.8,11.4,5.8,14h15.8v8.2H104v-8.2h4.9 c-3.2-4-5.4-9.6-5.4-16.4C103.5,836.3,106.2,829.2,116.5,829.1z" class="st1"/><path d="M98.2,760.1c0-13.4,5.1-20.1,14.8-20.9v8.8c-5.4,0.8-7.5,5-7.5,12.2c0,8.8,3.1,12.5,10,12.5 c6.9,0,10.1-3.7,10.1-12.5c0-7.1-2.2-11.4-7.6-12.2v-8.8c9.7,0.9,14.8,7.6,14.8,20.9c0,14.8-6.1,21.1-17.3,21.1 C104.2,781.2,98.2,774.9,98.2,760.1z" class="st1"/><path d="M118.1,736.3c-10.4,0-14.6-7.9-14.6-19.5c0-11.6,4.2-19.5,14.6-19.5c10.3,0,14.6,7.9,14.6,19.5 C132.6,728.5,128.4,736.3,118.1,736.3z M118.1,705.5c-5.9,0-7.8,3.7-7.8,11.3c0,7.6,1.9,11.4,7.8,11.4c5.8,0,7.7-3.7,7.7-11.4 C125.8,709.2,123.9,705.5,118.1,705.5z" class="st1"/><path d="M116.4,633l15.8,0.1v8.2h-12.5c-6,0-9.1,1-9.1,6.8c0,4.3,2.1,8.5,4.3,11c0.5,0,1,0,1.5,0l15.8,0.1v8.2h-12.5 c-6,0-9.1,1-9.1,6.8c0,4.7,2.4,9.3,5,11.7h16.6v8.2H104v-8.2h4.6c-2.4-3.1-5.1-7.7-5.1-14.7c0-4.3,1.2-8.3,5.2-10.4 c-2.7-3.6-5.2-8.7-5.2-15.7C103.5,638.8,106.2,633.1,116.4,633z" class="st1"/><path d="M118.1,590.1c10.8,0,14.6,7.7,14.6,16.8c0,6.1-1.6,11-4.8,14h16.3v8.2H104v-8.2h4.4c-3.2-3.1-4.8-8-4.8-14 C103.5,597.8,107.3,590.1,118.1,590.1z M118.1,598.3c-5.6,0-7.8,4-7.8,11.4c0,7.3,2.2,11.3,7.8,11.3c5.6,0,7.7-4,7.7-11.3 C125.8,602.3,123.6,598.3,118.1,598.3z" class="st1"/><path d="M104,547.5h28.2v8.2h-4.9c3.2,4,5.4,9.6,5.4,16.4c0,7.5-2.7,14.6-13.1,14.7l-15.6-0.1v-8.2h12.5 c6,0,9.1-2,9.1-8.8c0-5.5-2.8-11.4-5.8-14H104V547.5z" class="st1"/><path d="M110.8,528.7h8.1c5.5,0,6.8-1.1,6.8-6c0-2.6,0-4-0.5-7.3h6.6c0.5,2.7,0.7,5.8,0.7,9.6c0,7.3-2.7,12-9,12 h-12.9v7.4H104V537h-5.8l-2.3-8.2h8.2v-13.4h6.8V528.7z" class="st1"/><path d="M122.1,483.1v-8.1c7.2,1.9,10.6,8.9,10.6,19.3c0,10.7-4.2,19.1-14.6,19.1c-10.4,0-14.6-8.1-14.6-19.5 c0-10.7,3.7-19.3,16.5-19.3v30.5c4.5-0.9,6-5.2,6-10.7C126,488.6,124.9,485.1,122.1,483.1z M114.8,504.6v-21.4 c-4,1.4-5.1,5.4-5.1,10.6C109.7,499.4,110.8,503.3,114.8,504.6z" class="st1"/><path d="M104.4,441.1h6.8c-0.7,2.7-1,4.8-1,7.2c0,4.6,1.1,9.9,4.9,14.9h16.9v8.2H104v-8.2h4.8 c-3.8-4.2-5.3-9.2-5.3-14.5C103.5,445.3,104,443,104.4,441.1z" class="st1"/><path d="M132.2,406.9v8.6H98.6v-8.6H132.2z" class="st1"/><path d="M116.5,363.5l15.6,0.1v8.2h-12.5c-6,0-9.1,2-9.1,8.8c0,5.5,2.8,11.4,5.8,14h15.8v8.2H104v-8.2h4.9 c-3.2-4-5.4-9.6-5.4-16.4C103.5,370.6,106.2,363.6,116.5,363.5z" class="st1"/><path d="M110.8,346.4h8.1c5.5,0,6.8-1.1,6.8-6c0-2.6,0-4-0.5-7.3h6.6c0.5,2.7,0.7,5.8,0.7,9.6c0,7.3-2.7,12-9,12 h-12.9v7.4H104v-7.4h-5.8l-2.3-8.2h8.2V333h6.8V346.4z" class="st1"/><path d="M122.1,300.7v-8.1c7.2,1.9,10.6,8.9,10.6,19.3c0,10.7-4.2,19.1-14.6,19.1c-10.4,0-14.6-8.1-14.6-19.5 c0-10.7,3.7-19.3,16.5-19.3v30.5c4.5-0.9,6-5.2,6-10.7C126,306.2,124.9,302.8,122.1,300.7z M114.8,322.3v-21.4 c-4,1.4-5.1,5.4-5.1,10.6C109.7,317,110.8,321,114.8,322.3z" class="st1"/><path d="M104.4,258.7h6.8c-0.7,2.7-1,4.8-1,7.2c0,4.6,1.1,9.9,4.9,14.9h16.9v8.2H104v-8.2h4.8 c-3.8-4.2-5.3-9.2-5.3-14.5C103.5,263,104,260.6,104.4,258.7z" class="st1"/><path d="M117.9,220.1h14.2v8.2h-3.5c2.4,5,4,10.5,4,17.1c0,7.9-2.5,12.8-8.9,12.8c-7.3,0-9.6-8-9.6-17 c0-4.8,0.8-9.3,2-13c-5.4,0-5.8,6.9-5.8,10.7c0,3.7,0.3,8.2,2.1,14l-6,2.9c-1.9-5.7-2.9-11.4-2.9-17.3 C103.5,226.9,107.3,220.2,117.9,220.1z M121.2,228.3c-0.9,2.9-1.7,6.8-1.7,12c0,6.1,1.1,9.8,3.9,9.8c3,0,3.2-2.7,3.2-7 c0-4.5-1.4-10.6-3.2-14.8H121.2z" class="st1"/><path d="M103.5,197.6c0-10.5,3.4-18,11.7-19.3v8.4c-3.6,1.1-4.9,5-4.9,10.9c0,7,1.9,11.4,7.8,11.4 c5.8,0,7.7-4.3,7.7-11.4c0-5.9-1.2-9.8-4.9-10.9v-8.4c8.3,1.3,11.7,8.8,11.7,19.3c0,11.7-4.2,19.5-14.6,19.5 C107.7,217.2,103.5,209.3,103.5,197.6z" class="st1"/><path d="M110.8,162.1h8.1c5.5,0,6.8-1.1,6.8-6c0-2.6,0-4-0.5-7.3h6.6c0.5,2.7,0.7,5.8,0.7,9.6c0,7.3-2.7,12-9,12 h-12.9v7.4H104v-7.4h-5.8l-2.3-8.2h8.2v-13.4h6.8V162.1z" class="st1"/><path d="M93.8,137.2h7.1v8.2h-7.1V137.2z M104,137.2h28.2v8.2H104V137.2z" class="st1"/><path d="M118.1,134.1c-10.4,0-14.6-7.9-14.6-19.5c0-11.6,4.2-19.5,14.6-19.5c10.3,0,14.6,7.9,14.6,19.5 C132.6,126.2,128.4,134.1,118.1,134.1z M118.1,103.2c-5.9,0-7.8,3.7-7.8,11.3c0,7.6,1.9,11.4,7.8,11.4c5.8,0,7.7-3.7,7.7-11.4 C125.8,107,123.9,103.2,118.1,103.2z" class="st1"/><path d="M116.5,52.6l15.6,0.1v8.2h-12.5c-6,0-9.1,2-9.1,8.8c0,5.5,2.8,11.4,5.8,14h15.8v8.2H104v-8.2h4.9 c-3.2-4-5.4-9.6-5.4-16.4C103.5,59.7,106.2,52.7,116.5,52.6z" class="st1"/><path d="M122.3,41.6c3,0,4.2-3.1,4.2-12.3c0-8.9-0.6-10.3-2.8-10.3c-2.2,0-2.3,1.3-2.9,11.3 c-0.7,12.4-1.7,18.5-8.5,18.5c-7.4,0-8.8-8.6-8.8-18.7c0-10.6,1.4-18.3,9.1-18.3V20c-2.3,0-2.9,3-2.9,10.6c0,7.8,0.6,10,2.2,10 c1.8,0,2.1-1.5,2.8-11.2c0.8-11,1.1-18.5,8.6-18.5c8,0,9.3,7.2,9.3,18.1s-1.4,20.9-10.4,20.9V41.6z" class="st1"/></g><path d="M112.5,424.3h6.8v399.8h-6.8V424.3z" class="st2"/></g></svg>